<svg xmlns="http://www.w3.org/2000/svg" viewBox="0 0 980 460" font-family="-apple-system, Segoe UI, Helvetica, Arial, sans-serif">
  <defs>
    <marker id="arr" viewBox="0 0 10 10" refX="9" refY="5" markerWidth="7" markerHeight="7" orient="auto-start-reverse">
      <path d="M 0 0 L 10 5 L 0 10 z" fill="#64748b"/>
    </marker>
  </defs>
  <style>
    .box { fill: #f8fafc; stroke: #94a3b8; stroke-width: 1.5; rx: 10; }
    .accent { fill: #eff6ff; stroke: #2563eb; }
    .title { font-size: 15px; font-weight: 600; fill: #0f172a; }
    .sub { font-size: 11.5px; fill: #475569; }
    .flow { stroke: #64748b; stroke-width: 1.8; fill: none; marker-end: url(#arr); }
    .lane { font-size: 11px; fill: #94a3b8; font-weight: 600; letter-spacing: 1px; }
  </style>

  <text x="30" y="30" class="lane">SOURCES</text>
  <rect class="box" x="30" y="45" width="180" height="64" rx="10"/>
  <text x="45" y="72" class="title">FDIC BankFind API</text>
  <text x="45" y="92" class="sub">institutions · financials · failures</text>

  <rect class="box" x="30" y="130" width="180" height="64" rx="10"/>
  <text x="45" y="157" class="title">FRED API</text>
  <text x="45" y="177" class="sub">H.8 weekly aggregates</text>

  <text x="280" y="30" class="lane">INGESTION</text>
  <rect class="box" x="280" y="70" width="190" height="94" rx="10"/>
  <text x="295" y="99" class="title">Python (uv)</text>
  <text x="295" y="119" class="sub">raw response cache on disk</text>
  <text x="295" y="136" class="sub">polite paging · live-verified fields</text>
  <text x="295" y="153" class="sub">idempotent keyed upserts</text>

  <text x="540" y="30" class="lane">WAREHOUSE + MODELS</text>
  <rect class="box" x="540" y="45" width="180" height="64" rx="10"/>
  <text x="555" y="72" class="title">MotherDuck</text>
  <text x="555" y="92" class="sub">DuckDB locally for dev</text>

  <rect class="box" x="540" y="130" width="195" height="80" rx="10"/>
  <text x="555" y="157" class="title">dbt</text>
  <text x="555" y="176" class="sub">staging → metrics → marts</text>
  <text x="555" y="193" class="sub">33 models + tests each build</text>

  <text x="790" y="30" class="lane">PUBLISH</text>
  <rect class="box accent" x="785" y="45" width="175" height="64" rx="10"/>
  <text x="805" y="72" class="title">Evidence build</text>
  <text x="805" y="92" class="sub">marts exported to DuckDB file</text>

  <rect class="box accent" x="790" y="130" width="160" height="64" rx="10"/>
  <text x="805" y="157" class="title">GitHub Pages</text>
  <text x="805" y="177" class="sub">static site + dbt docs</text>

  <path class="flow" d="M 210 77 L 280 100"/>
  <path class="flow" d="M 210 162 L 280 140"/>
  <path class="flow" d="M 470 105 L 540 82"/>
  <path class="flow" d="M 630 109 L 630 130"/>
  <path class="flow" d="M 735 165 L 790 90"/>
  <path class="flow" d="M 870 109 L 870 130"/>

  <rect class="box" x="30" y="260" width="920" height="170" rx="10"/>
  <text x="50" y="290" class="title">GitHub Actions</text>
  <text x="50" y="316" class="sub">• CI on every push and pull request — ruff, pytest, then dbt build against the warehouse</text>
  <text x="50" y="338" class="sub">• Push to main — rebuild models, docs, and dashboard FROM the warehouse (no source-API calls) and deploy</text>
  <text x="50" y="360" class="sub">• Saturday cron — ingest the week's FRED H.8 observations, then rebuild and deploy</text>
  <text x="50" y="382" class="sub">• Daily cron — compare the FDIC API's latest quarter to the warehouse high-water mark; on a new quarter,</text>
  <text x="62" y="400" class="sub">run the full FDIC ingestion and redeploy automatically</text>
  <text x="50" y="422" class="sub">• The 2023 backtest reproduces from one command, with an equivalence proof of its data freeze</text>
</svg>
